# xmcd
#
# Track frame offsets: 
#        150
#        19897
#        37899
#        56771
#        72443
#        93439
#        110932
#        138555
#        162552
#
# Disc length: 2387 seconds
#
# Revision: 0
# Processed by: cddbd v1.5.2PL0 Copyright (c) Steve Scherf et al.
# Submitted via: ExactAudioCopyFreeDBPlugin 1.0
#
DISCID=84095109
DTITLE=Artie Tobia - Aberdeen
DYEAR=2016
DGENRE=Rock
TTITLE0=Kryptonite
TTITLE1=Big Bosom Lady
TTITLE2=Aberdeen
TTITLE3=Mama Calling Me 
TTITLE4=First He Was My Father
TTITLE5=River of Tears
TTITLE6=Faces of War (Ballad of Johnny Garcia)
TTITLE7=Boom Boom Boom
TTITLE8=Farewell
EXTD=
EXTT0=
EXTT1=
EXTT2=
EXTT3=
EXTT4=
EXTT5=
EXTT6=
EXTT7=
EXTT8=
PLAYORDER=
